<?xml version="1.0" encoding="UTF-8"?>
<svg width="54px" height="55px" viewBox="0 0 54 55" version="1.1" xmlns="http://www.w3.org/2000/svg" xmlns:xlink="http://www.w3.org/1999/xlink">
    <title>Group 2</title>
    <g id="Page-1" stroke="none" stroke-width="1" fill="none" fill-rule="evenodd">
        <g id="Desktop-alt-color-750x750" transform="translate(-696.000000, 0.000000)" fill="#EEC46B">
            <g id="Group-2" transform="translate(696.000000, 0.000000)">
                <g id="Group" transform="translate(18.000000, 28.000000) rotate(270.000000) translate(-18.000000, -28.000000) translate(3.000000, 19.000000)">
                    <polygon id="Rectangle" points="0 12.4137931 15.625 12.4137931 15.625 18 0 18"></polygon>
                    <polygon id="Rectangle" points="22.8125 8.06896552 22.8125 18 17.1875 18 17.1875 8.06896552"></polygon>
                    <polygon id="Rectangle" points="30 0 30 18 24.375 18 24.375 0"></polygon>
                </g>
                <g id="Group" transform="translate(37.000000, 28.000000) rotate(270.000000) translate(-37.000000, -28.000000) translate(22.000000, 21.000000)">
                    <path d="M5.625,14 C2.51839828,14 6.66133815e-15,11.5070401 6.66133815e-15,8.43181818 L6.66133815e-15,0 L5.625,0 L5.625,8.4 L12.031,8.4 L12.03125,2.33333333 L17.65625,2.33333333 L17.656,8.4 L24.375,8.4 L24.375,0 L30,0 L30,8.43181818 C30,11.4631083 27.553042,13.9286537 24.5077743,13.9984793 L24.375,14 L5.625,14 Z" id="Combined-Shape"></path>
                </g>
                <path d="M27,0 C41.9116882,0 54,12.3121694 54,27.5 C54,42.6878306 41.9116882,55 27,55 C12.0883118,55 0,42.6878306 0,27.5 C0,12.3121694 12.0883118,0 27,0 Z M27,3.125 C13.6133708,3.125 2.76136364,14.1779702 2.76136364,27.8125 C2.76136364,41.4470298 13.6133708,52.5 27,52.5 C40.3866292,52.5 51.2386364,41.4470298 51.2386364,27.8125 C51.2386364,14.1779702 40.3866292,3.125 27,3.125 Z" id="Shape"></path>
            </g>
        </g>
    </g>
</svg>