<?xml version="1.0" encoding="UTF-8"?>
<svg width="289px" height="287px" viewBox="0 0 289 287" version="1.1" xmlns="http://www.w3.org/2000/svg" xmlns:xlink="http://www.w3.org/1999/xlink">
    <title>Group 2</title>
    <g id="Page-1" stroke="none" stroke-width="1" fill="none" fill-rule="evenodd">
        <g id="FOLA-BABALOLA" transform="translate(-356.000000, -148.000000)" fill="#EEC46B">
            <g id="Group-2" transform="translate(356.000000, 148.000000)">
                <g id="Group" transform="translate(96.500000, 144.000000) rotate(270.000000) translate(-96.500000, -144.000000) translate(31.500000, 104.500000)">
                    <polygon id="Rectangle" points="-0.5 54.5 67.5 54.5 67.5 79.5 -0.5 79.5"></polygon>
                    <polygon id="Rectangle" points="99 35 99 79 75 79 75 35"></polygon>
                    <polygon id="Rectangle" points="129.5 0.5 129.5 79.5 105.5 79.5 105.5 0.5"></polygon>
                </g>
                <g id="Group" transform="translate(173.000000, 144.000000) rotate(270.000000) translate(-173.000000, -144.000000) translate(108.000000, 114.000000)">
                    <path d="M24.375,60 L24.375,36 L52.135,36 L52.1354167,10 L76.5104167,10 L76.51,36 L105.625,36 L105.625,0 L130,0 L130,35.625 C130,48.9523214 119.304111,59.7814839 106.028085,59.9967344 L105.625,60 L24.375,60 Z M24.375,-7.8516965e-15 L24.375,60 C10.9130592,60 -4.19220214e-13,49.0869408 -4.19220214e-13,35.625 L-4.22772928e-13,-6.35915821e-15 L24.375,-7.8516965e-15 Z" id="Combined-Shape"></path>
                </g>
                <path d="M144.5,0 C224.305146,0 289,64.2471384 289,143.5 C289,222.752862 224.305146,287 144.5,287 C64.6948537,287 0,222.752862 0,143.5 C0,64.2471384 64.6948537,0 144.5,0 Z M144.5,16.3068182 C72.8567436,16.3068182 14.7784091,73.9832265 14.7784091,145.130682 C14.7784091,216.278137 72.8567436,273.954545 144.5,273.954545 C216.143256,273.954545 274.221591,216.278137 274.221591,145.130682 C274.221591,73.9832265 216.143256,16.3068182 144.5,16.3068182 Z" id="Combined-Shape"></path>
            </g>
        </g>
    </g>
</svg>